<?xml version="1.0" standalone="no"?>
<!DOCTYPE svg PUBLIC "-//W3C//DTD SVG 20010904//EN"
 "http://www.w3.org/TR/2001/REC-SVG-20010904/DTD/svg10.dtd">
<svg version="1.0" xmlns="http://www.w3.org/2000/svg"
 width="626.000000pt" height="470.000000pt" viewBox="0 0 626.000000 470.000000"
 preserveAspectRatio="xMidYMid meet">

<g transform="translate(0.000000,470.000000) scale(0.100000,-0.100000)"
fill="#000000" stroke="none">
<path d="M2656 3664 c-80 -25 -132 -87 -191 -227 -54 -128 -86 -171 -136 -181
-17 -3 -93 -6 -168 -6 -154 0 -192 -11 -253 -72 -77 -77 -73 -39 -76 -737 l-2
-625 25 -53 c33 -65 94 -119 159 -138 74 -22 2158 -22 2232 0 61 18 116 62
152 123 l27 47 3 625 3 624 -31 62 c-28 58 -61 92 -120 125 -17 9 -77 15 -195
19 -206 6 -207 7 -260 123 -21 45 -51 110 -67 144 -34 75 -92 128 -162 148
-73 22 -868 21 -940 -1z m907 -65 c70 -19 109 -67 172 -209 88 -196 109 -210
327 -210 155 0 199 -11 245 -61 53 -58 53 -52 53 -687 l0 -588 -25 -50 c-30
-61 -87 -100 -159 -109 -28 -3 -519 -5 -1091 -3 -1146 3 -1064 -1 -1127 65
-59 62 -58 48 -58 690 0 550 2 591 19 628 43 94 95 115 281 115 215 0 238 14
324 209 62 139 97 183 162 206 49 18 816 21 877 4z"/>
<path d="M2995 3285 c-147 -26 -277 -94 -388 -203 -115 -113 -179 -230 -211
-384 -75 -364 123 -720 479 -857 89 -35 91 -35 250 -36 146 0 167 3 238 27
294 99 499 367 515 673 24 487 -406 867 -883 780z m315 -86 c218 -58 393 -228
467 -454 33 -100 37 -262 10 -365 -109 -414 -573 -629 -952 -441 -181 90 -309
245 -362 441 -27 100 -23 263 9 362 38 116 92 204 173 283 181 178 408 238
655 174z"/>
<path d="M2990 3094 c-200 -53 -370 -227 -410 -421 -18 -83 -8 -245 18 -318
48 -133 162 -257 288 -317 70 -33 177 -58 250 -58 64 0 187 31 251 64 119 60
229 185 275 311 26 73 36 235 18 318 -40 196 -211 370 -415 422 -74 19 -202
18 -275 -1z m231 -64 c222 -41 398 -253 399 -480 0 -273 -217 -491 -490 -492
-272 0 -490 219 -490 492 0 181 109 354 274 435 105 52 197 65 307 45z"/>
<path d="M4035 3016 c-104 -47 -112 -185 -14 -238 121 -65 250 73 175 187 -35
53 -107 76 -161 51z m101 -95 c15 -30 7 -59 -22 -77 -46 -31 -108 22 -85 72
21 47 84 50 107 5z"/>
<path d="M2415 1316 c-43 -19 -58 -57 -63 -168 -6 -126 3 -180 34 -218 24 -27
31 -30 88 -30 71 0 99 19 116 81 17 57 12 233 -7 280 -25 62 -97 86 -168 55z
m95 -65 c5 -11 10 -76 10 -145 0 -100 -3 -128 -16 -140 -20 -20 -38 -20 -58 0
-13 12 -16 40 -16 140 0 136 8 164 45 164 14 0 29 -8 35 -19z"/>
<path d="M3471 1317 c-48 -24 -63 -59 -69 -155 -7 -128 4 -197 36 -233 24 -27
34 -30 84 -30 72 0 92 11 112 61 19 49 21 246 3 300 -20 58 -107 88 -166 57z
m89 -66 c5 -11 10 -74 10 -141 0 -67 -5 -130 -10 -141 -14 -24 -42 -24 -64 0
-15 17 -17 37 -14 151 2 103 6 133 18 140 24 15 48 11 60 -9z"/>
<path d="M4074 1324 c-58 -13 -83 -78 -84 -212 0 -163 29 -212 127 -212 30 0
62 4 72 10 34 18 51 83 51 198 0 125 -12 176 -45 198 -26 17 -86 25 -121 18z
m77 -71 c19 -22 20 -248 1 -280 -17 -30 -48 -29 -68 2 -22 33 -17 271 6 285
23 14 46 12 61 -7z"/>
<path d="M2034 1307 c-2 -7 -3 -100 -2 -207 l3 -195 30 0 30 0 5 130 c3 89 8
124 14 110 5 -11 27 -65 48 -120 47 -118 52 -125 89 -125 39 0 40 10 37 230
l-3 185 -30 0 -30 0 -3 -122 c-1 -68 -6 -123 -10 -123 -4 0 -27 51 -51 113
-24 61 -48 118 -54 125 -12 16 -66 16 -73 -1z"/>
<path d="M2811 1306 c-8 -9 -11 -73 -9 -207 l3 -194 30 0 30 0 3 88 3 87 49 0
c66 0 106 33 115 95 10 64 -9 114 -51 131 -44 18 -158 19 -173 0z m137 -58
c16 -16 16 -80 0 -96 -7 -7 -27 -12 -45 -12 l-33 0 0 60 0 60 33 0 c18 0 38
-5 45 -12z"/>
<path d="M3095 1308 c-3 -8 -4 -101 -3 -208 l3 -195 30 0 30 0 5 95 5 95 50 0
50 0 5 -95 5 -95 30 0 30 0 0 205 0 205 -30 0 -30 0 -3 -82 -3 -83 -54 0 -54
0 -3 83 c-3 81 -3 82 -31 85 -16 2 -29 -2 -32 -10z"/>
<path d="M3689 1304 c-22 -26 1 -49 55 -52 l46 -3 0 -170 c0 -148 2 -170 16
-176 9 -3 24 -2 33 4 13 9 16 36 19 176 l2 166 42 3 c48 3 70 27 49 52 -11 13
-36 16 -131 16 -95 0 -120 -3 -131 -16z"/>
</g>
</svg>
